<mxfile host="app.diagrams.net" modified="2020-08-12T15:25:44.325Z" agent="5.0 (Windows NT 10.0; Win64; x64) AppleWebKit/537.36 (KHTML, like Gecko) Chrome/84.0.4147.105 Safari/537.36" etag="gvY8NvwnXabk7TnK7cMO" version="13.4.5" type="github">
  <diagram id="DQchyCB_N_H0ZP1r1eAt" name="Page-1">
    <mxGraphModel dx="1146" dy="521" grid="0" gridSize="10" guides="1" tooltips="1" connect="1" arrows="1" fold="1" page="1" pageScale="1" pageWidth="827" pageHeight="1169" math="0" shadow="0">
      <root>
        <mxCell id="0" />
        <mxCell id="1" parent="0" />
        <mxCell id="PDq4BTt-HHCtBDdT8FIZ-3" value="映射配置文件" style="whiteSpace=wrap;html=1;shape=mxgraph.basic.document" vertex="1" parent="1">
          <mxGeometry x="330" y="280" width="100" height="100" as="geometry" />
        </mxCell>
        <mxCell id="PDq4BTt-HHCtBDdT8FIZ-10" style="edgeStyle=orthogonalEdgeStyle;rounded=0;orthogonalLoop=1;jettySize=auto;html=1;exitX=0;exitY=0.5;exitDx=0;exitDy=0;entryX=1;entryY=0.397;entryDx=0;entryDy=0;entryPerimeter=0;" edge="1" parent="1" source="PDq4BTt-HHCtBDdT8FIZ-4" target="PDq4BTt-HHCtBDdT8FIZ-3">
          <mxGeometry relative="1" as="geometry" />
        </mxCell>
        <mxCell id="PDq4BTt-HHCtBDdT8FIZ-4" value="数据库" style="shape=datastore;whiteSpace=wrap;html=1;" vertex="1" parent="1">
          <mxGeometry x="520" y="280" width="80" height="80" as="geometry" />
        </mxCell>
        <mxCell id="PDq4BTt-HHCtBDdT8FIZ-6" style="edgeStyle=orthogonalEdgeStyle;rounded=0;orthogonalLoop=1;jettySize=auto;html=1;exitX=1;exitY=0.25;exitDx=0;exitDy=0;entryX=0.006;entryY=0.349;entryDx=0;entryDy=0;entryPerimeter=0;" edge="1" parent="1" source="PDq4BTt-HHCtBDdT8FIZ-5" target="PDq4BTt-HHCtBDdT8FIZ-3">
          <mxGeometry relative="1" as="geometry" />
        </mxCell>
        <mxCell id="PDq4BTt-HHCtBDdT8FIZ-5" value="JAVA 程序" style="rounded=1;whiteSpace=wrap;html=1;" vertex="1" parent="1">
          <mxGeometry x="120" y="300" width="120" height="60" as="geometry" />
        </mxCell>
        <mxCell id="PDq4BTt-HHCtBDdT8FIZ-8" style="edgeStyle=orthogonalEdgeStyle;rounded=0;orthogonalLoop=1;jettySize=auto;html=1;exitX=-0.001;exitY=0.652;exitDx=0;exitDy=0;entryX=1;entryY=0.75;entryDx=0;entryDy=0;exitPerimeter=0;" edge="1" parent="1" source="PDq4BTt-HHCtBDdT8FIZ-3" target="PDq4BTt-HHCtBDdT8FIZ-5">
          <mxGeometry relative="1" as="geometry">
            <mxPoint x="250" y="325.0000000000001" as="sourcePoint" />
            <mxPoint x="340.5999999999999" y="324.9000000000001" as="targetPoint" />
          </mxGeometry>
        </mxCell>
        <mxCell id="PDq4BTt-HHCtBDdT8FIZ-12" style="edgeStyle=orthogonalEdgeStyle;rounded=0;orthogonalLoop=1;jettySize=auto;html=1;entryX=-0.023;entryY=0.841;entryDx=0;entryDy=0;entryPerimeter=0;" edge="1" parent="1" target="PDq4BTt-HHCtBDdT8FIZ-4">
          <mxGeometry relative="1" as="geometry">
            <mxPoint x="430" y="347" as="sourcePoint" />
            <mxPoint x="340.5999999999999" y="324.9000000000001" as="targetPoint" />
          </mxGeometry>
        </mxCell>
        <mxCell id="PDq4BTt-HHCtBDdT8FIZ-13" value="hbm.xml" style="whiteSpace=wrap;html=1;shape=mxgraph.basic.document" vertex="1" parent="1">
          <mxGeometry x="330" y="471" width="100" height="100" as="geometry" />
        </mxCell>
        <mxCell id="PDq4BTt-HHCtBDdT8FIZ-14" style="edgeStyle=orthogonalEdgeStyle;rounded=0;orthogonalLoop=1;jettySize=auto;html=1;exitX=0;exitY=0.5;exitDx=0;exitDy=0;entryX=1;entryY=0.397;entryDx=0;entryDy=0;entryPerimeter=0;" edge="1" parent="1" source="PDq4BTt-HHCtBDdT8FIZ-15" target="PDq4BTt-HHCtBDdT8FIZ-13">
          <mxGeometry relative="1" as="geometry" />
        </mxCell>
        <mxCell id="PDq4BTt-HHCtBDdT8FIZ-15" value="数据库" style="shape=datastore;whiteSpace=wrap;html=1;" vertex="1" parent="1">
          <mxGeometry x="520" y="471" width="80" height="80" as="geometry" />
        </mxCell>
        <mxCell id="PDq4BTt-HHCtBDdT8FIZ-16" style="edgeStyle=orthogonalEdgeStyle;rounded=0;orthogonalLoop=1;jettySize=auto;html=1;exitX=1;exitY=0.25;exitDx=0;exitDy=0;entryX=0.006;entryY=0.349;entryDx=0;entryDy=0;entryPerimeter=0;" edge="1" parent="1" source="PDq4BTt-HHCtBDdT8FIZ-17" target="PDq4BTt-HHCtBDdT8FIZ-13">
          <mxGeometry relative="1" as="geometry" />
        </mxCell>
        <mxCell id="PDq4BTt-HHCtBDdT8FIZ-17" value="Hibernate 程序" style="rounded=1;whiteSpace=wrap;html=1;" vertex="1" parent="1">
          <mxGeometry x="120" y="491" width="120" height="60" as="geometry" />
        </mxCell>
        <mxCell id="PDq4BTt-HHCtBDdT8FIZ-18" style="edgeStyle=orthogonalEdgeStyle;rounded=0;orthogonalLoop=1;jettySize=auto;html=1;exitX=-0.001;exitY=0.652;exitDx=0;exitDy=0;entryX=1;entryY=0.75;entryDx=0;entryDy=0;exitPerimeter=0;" edge="1" parent="1" source="PDq4BTt-HHCtBDdT8FIZ-13" target="PDq4BTt-HHCtBDdT8FIZ-17">
          <mxGeometry relative="1" as="geometry">
            <mxPoint x="250" y="516.0000000000001" as="sourcePoint" />
            <mxPoint x="340.5999999999999" y="515.9000000000001" as="targetPoint" />
          </mxGeometry>
        </mxCell>
        <mxCell id="PDq4BTt-HHCtBDdT8FIZ-19" style="edgeStyle=orthogonalEdgeStyle;rounded=0;orthogonalLoop=1;jettySize=auto;html=1;entryX=-0.023;entryY=0.841;entryDx=0;entryDy=0;entryPerimeter=0;" edge="1" parent="1" target="PDq4BTt-HHCtBDdT8FIZ-15">
          <mxGeometry relative="1" as="geometry">
            <mxPoint x="430" y="538" as="sourcePoint" />
            <mxPoint x="340.5999999999999" y="515.9000000000001" as="targetPoint" />
          </mxGeometry>
        </mxCell>
      </root>
    </mxGraphModel>
  </diagram>
</mxfile>
